<svg xmlns="http://www.w3.org/2000/svg" width="1800" height="600" aria-label="Aphrodite - CCR compression proxy" viewBox="0 0 1800 600"><defs><pattern id="a" width="8" height="8" patternUnits="userSpaceOnUse"><circle cx="4" cy="4" r="1" fill="#dedbd2" opacity=".08"/></pattern><pattern id="b" width="13" height="13" patternUnits="userSpaceOnUse"><circle cx="6.5" cy="6.5" r="1.5" fill="#931128" opacity=".28"/></pattern><pattern id="d" width="4" height="4" patternUnits="userSpaceOnUse"><circle cx="1" cy="1" r=".9" fill="#520612"/><circle cx="3" cy="3" r=".65" fill="#3d040d"/></pattern><filter id="c"><feTurbulence baseFrequency=".8" numOctaves="4" seed="7" stitchTiles="stitch" type="fractalNoise"/><feColorMatrix type="saturate" values="0"/></filter></defs><path fill="#09090b" d="M0 0h1800v600H0z"/><path fill="url(#a)" d="M0 0h1800v600H0z"/><path fill="url(#b)" d="M0 0h1800v600H0z"/><path d="M0 0h1800v600H0z" filter="url(#c)" opacity=".05"/><path fill="none" stroke="#520612" stroke-width="2" d="M14 14h1772v572H14z"/><path fill="none" stroke="#3d040d" stroke-width="2" d="M26 26h1772v572H26z"/><g transform="matrix(1.9 0 0 1.9 180 130)"><g fill="#3d040d"><path d="M20 74c22-30 58-46 92-22 34-24 70-8 92 22-34-8-66-6-92 4-26-10-58-12-92-4"/><path d="M30 76c28 36 62 50 82 50s54-14 82-50c-36 26-64 10-82 10s-46 16-82-10"/></g><path fill="#931128" d="M8 62c22-30 58-46 92-22 34-24 70-8 92 22-34-8-66-6-92 4-26-10-58-12-92-4"/><path fill="#931128" d="M18 64c28 36 62 50 82 50s54-14 82-50c-36 26-64 10-82 10S54 90 18 64"/><path fill="url(#d)" d="M8 62c22-30 58-46 92-22 34-24 70-8 92 22-34-8-66-6-92 4-26-10-58-12-92-4"/><path fill="#ece9e0" d="M42 63c30 6 58 8 116 0-30 3-86 3-116 0" opacity=".9"/><circle cx="30" cy="6" r="5" fill="#20807b"/><circle cx="64" cy="10" r="3.5" fill="#e5a93b"/><circle cx="168" cy="8" r="4.5" fill="#e5a93b"/><circle cx="206" cy="30" r="3.5" fill="#20807b"/><circle cx="190" cy="140" r="3" fill="#dedbd2" opacity=".6"/><circle cx="34" cy="144" r="3" fill="#dedbd2" opacity=".6"/></g><text x="640" y="336" fill="#ece9e0" font-family="Space Grotesk, Arial, Helvetica, sans-serif" font-size="130" font-weight="700" letter-spacing="12">APHRODITE</text><path fill="#931128" d="M646 366h960v6H646z"/><text x="650" y="432" fill="#82808a" font-family="Space Grotesk, Arial, Helvetica, sans-serif" font-size="32" font-weight="500" letter-spacing="4">CCR COMPRESSION PROXY FOR HERMES AGENT</text></svg>